<?xml version="1.0" encoding="UTF-8"?>
<svg xmlns="http://www.w3.org/2000/svg" xmlns:xlink="http://www.w3.org/1999/xlink" width="144" height="144" viewBox="0 0 144 144">
<rect x="-14.4" y="-14.4" width="172.8" height="172.8" fill="rgb(100%, 100%, 100%)" fill-opacity="1"/>
<path fill-rule="nonzero" fill="rgb(0%, 0%, 100%)" fill-opacity="1" d="M 129.601562 14.398438 L 136.800781 21.601562 L 129.601562 28.800781 L 122.398438 21.601562 Z M 129.601562 14.398438 "/>
<path fill-rule="nonzero" fill="rgb(0%, 0%, 100%)" fill-opacity="1" stroke-width="2" stroke-linecap="butt" stroke-linejoin="miter" stroke="rgb(0%, 0%, 0%)" stroke-opacity="1" stroke-miterlimit="10" d="M 129.601562 14.398438 L 122.398438 21.601562 L 129.601562 28.800781 L 136.800781 21.601562 Z M 129.601562 14.398438 "/>
<path fill-rule="nonzero" fill="rgb(0%, 0%, 100%)" fill-opacity="1" d="M 115.199219 14.398438 L 122.398438 21.601562 L 115.199219 28.800781 L 108 21.601562 Z M 115.199219 14.398438 "/>
<path fill-rule="nonzero" fill="rgb(100%, 100%, 0%)" fill-opacity="1" stroke-width="2" stroke-linecap="butt" stroke-linejoin="miter" stroke="rgb(0%, 0%, 0%)" stroke-opacity="1" stroke-miterlimit="10" d="M 115.199219 14.398438 L 108 21.601562 L 115.199219 28.800781 L 122.398438 21.601562 Z M 115.199219 14.398438 "/>
<path fill-rule="nonzero" fill="rgb(100%, 100%, 0%)" fill-opacity="1" d="M 122.398438 21.601562 L 115.199219 28.800781 L 122.398438 36 L 129.601562 28.800781 Z M 122.398438 21.601562 "/>
<path fill-rule="nonzero" fill="rgb(0%, 0%, 100%)" fill-opacity="1" stroke-width="2" stroke-linecap="butt" stroke-linejoin="miter" stroke="rgb(0%, 0%, 0%)" stroke-opacity="1" stroke-miterlimit="10" d="M 122.398438 21.601562 L 129.601562 28.800781 L 122.398438 36 L 115.199219 28.800781 Z M 122.398438 21.601562 "/>
<path fill-rule="nonzero" fill="rgb(0%, 0%, 100%)" fill-opacity="1" d="M 129.601562 28.800781 L 136.800781 36 L 129.601562 43.199219 L 122.398438 36 Z M 129.601562 28.800781 "/>
<path fill-rule="nonzero" fill="rgb(0%, 0%, 100%)" fill-opacity="1" stroke-width="2" stroke-linecap="butt" stroke-linejoin="miter" stroke="rgb(0%, 0%, 0%)" stroke-opacity="1" stroke-miterlimit="10" d="M 129.601562 28.800781 L 122.398438 36 L 129.601562 43.199219 L 136.800781 36 Z M 129.601562 28.800781 "/>
<path fill-rule="nonzero" fill="rgb(0%, 0%, 100%)" fill-opacity="1" d="M 100.800781 14.398438 L 108 21.601562 L 100.800781 28.800781 L 93.601562 21.601562 Z M 100.800781 14.398438 "/>
<path fill-rule="nonzero" fill="rgb(0%, 0%, 100%)" fill-opacity="1" stroke-width="2" stroke-linecap="butt" stroke-linejoin="miter" stroke="rgb(0%, 0%, 0%)" stroke-opacity="1" stroke-miterlimit="10" d="M 100.800781 14.398438 L 93.601562 21.601562 L 100.800781 28.800781 L 108 21.601562 Z M 100.800781 14.398438 "/>
<path fill-rule="nonzero" fill="rgb(0%, 0%, 100%)" fill-opacity="1" d="M 108 21.601562 L 100.800781 28.800781 L 108 36 L 115.199219 28.800781 Z M 108 21.601562 "/>
<path fill-rule="nonzero" fill="rgb(0%, 0%, 100%)" fill-opacity="1" stroke-width="2" stroke-linecap="butt" stroke-linejoin="miter" stroke="rgb(0%, 0%, 0%)" stroke-opacity="1" stroke-miterlimit="10" d="M 108 21.601562 L 115.199219 28.800781 L 108 36 L 100.800781 28.800781 Z M 108 21.601562 "/>
<path fill-rule="nonzero" fill="rgb(0%, 0%, 100%)" fill-opacity="1" d="M 115.199219 28.800781 L 122.398438 36 L 115.199219 43.199219 L 108 36 Z M 115.199219 28.800781 "/>
<path fill-rule="nonzero" fill="rgb(0%, 0%, 100%)" fill-opacity="1" stroke-width="2" stroke-linecap="butt" stroke-linejoin="miter" stroke="rgb(0%, 0%, 0%)" stroke-opacity="1" stroke-miterlimit="10" d="M 115.199219 28.800781 L 108 36 L 115.199219 43.199219 L 122.398438 36 Z M 115.199219 28.800781 "/>
<path fill-rule="nonzero" fill="rgb(0%, 0%, 100%)" fill-opacity="1" d="M 122.398438 36 L 115.199219 43.199219 L 122.398438 50.398438 L 129.601562 43.199219 Z M 122.398438 36 "/>
<path fill-rule="nonzero" fill="rgb(0%, 0%, 100%)" fill-opacity="1" stroke-width="2" stroke-linecap="butt" stroke-linejoin="miter" stroke="rgb(0%, 0%, 0%)" stroke-opacity="1" stroke-miterlimit="10" d="M 122.398438 36 L 129.601562 43.199219 L 122.398438 50.398438 L 115.199219 43.199219 Z M 122.398438 36 "/>
<path fill-rule="nonzero" fill="rgb(0%, 0%, 100%)" fill-opacity="1" d="M 129.601562 43.199219 L 136.800781 50.398438 L 129.601562 57.601562 L 122.398438 50.398438 Z M 129.601562 43.199219 "/>
<path fill-rule="nonzero" fill="rgb(0%, 0%, 100%)" fill-opacity="1" stroke-width="2" stroke-linecap="butt" stroke-linejoin="miter" stroke="rgb(0%, 0%, 0%)" stroke-opacity="1" stroke-miterlimit="10" d="M 129.601562 43.199219 L 122.398438 50.398438 L 129.601562 57.601562 L 136.800781 50.398438 Z M 129.601562 43.199219 "/>
<path fill-rule="nonzero" fill="rgb(0%, 0%, 100%)" fill-opacity="1" d="M 86.398438 14.398438 L 93.601562 21.601562 L 86.398438 28.800781 L 79.199219 21.601562 Z M 86.398438 14.398438 "/>
<path fill-rule="nonzero" fill="rgb(0%, 0%, 100%)" fill-opacity="1" stroke-width="2" stroke-linecap="butt" stroke-linejoin="miter" stroke="rgb(0%, 0%, 0%)" stroke-opacity="1" stroke-miterlimit="10" d="M 86.398438 14.398438 L 79.199219 21.601562 L 86.398438 28.800781 L 93.601562 21.601562 Z M 86.398438 14.398438 "/>
<path fill-rule="nonzero" fill="rgb(0%, 0%, 100%)" fill-opacity="1" d="M 93.601562 21.601562 L 86.398438 28.800781 L 93.601562 36 L 100.800781 28.800781 Z M 93.601562 21.601562 "/>
<path fill-rule="nonzero" fill="rgb(0%, 0%, 100%)" fill-opacity="1" stroke-width="2" stroke-linecap="butt" stroke-linejoin="miter" stroke="rgb(0%, 0%, 0%)" stroke-opacity="1" stroke-miterlimit="10" d="M 93.601562 21.601562 L 100.800781 28.800781 L 93.601562 36 L 86.398438 28.800781 Z M 93.601562 21.601562 "/>
<path fill-rule="nonzero" fill="rgb(0%, 0%, 100%)" fill-opacity="1" d="M 100.800781 28.800781 L 108 36 L 100.800781 43.199219 L 93.601562 36 Z M 100.800781 28.800781 "/>
<path fill-rule="nonzero" fill="rgb(0%, 0%, 100%)" fill-opacity="1" stroke-width="2" stroke-linecap="butt" stroke-linejoin="miter" stroke="rgb(0%, 0%, 0%)" stroke-opacity="1" stroke-miterlimit="10" d="M 100.800781 28.800781 L 93.601562 36 L 100.800781 43.199219 L 108 36 Z M 100.800781 28.800781 "/>
<path fill-rule="nonzero" fill="rgb(0%, 0%, 100%)" fill-opacity="1" d="M 108 36 L 100.800781 43.199219 L 108 50.398438 L 115.199219 43.199219 Z M 108 36 "/>
<path fill-rule="nonzero" fill="rgb(0%, 0%, 100%)" fill-opacity="1" stroke-width="2" stroke-linecap="butt" stroke-linejoin="miter" stroke="rgb(0%, 0%, 0%)" stroke-opacity="1" stroke-miterlimit="10" d="M 108 36 L 115.199219 43.199219 L 108 50.398438 L 100.800781 43.199219 Z M 108 36 "/>
<path fill-rule="nonzero" fill="rgb(0%, 0%, 100%)" fill-opacity="1" d="M 115.199219 43.199219 L 122.398438 50.398438 L 115.199219 57.601562 L 108 50.398438 Z M 115.199219 43.199219 "/>
<path fill-rule="nonzero" fill="rgb(0%, 0%, 100%)" fill-opacity="1" stroke-width="2" stroke-linecap="butt" stroke-linejoin="miter" stroke="rgb(0%, 0%, 0%)" stroke-opacity="1" stroke-miterlimit="10" d="M 115.199219 43.199219 L 108 50.398438 L 115.199219 57.601562 L 122.398438 50.398438 Z M 115.199219 43.199219 "/>
<path fill-rule="nonzero" fill="rgb(0%, 0%, 100%)" fill-opacity="1" d="M 122.398438 50.398438 L 115.199219 57.601562 L 122.398438 64.800781 L 129.601562 57.601562 Z M 122.398438 50.398438 "/>
<path fill-rule="nonzero" fill="rgb(0%, 0%, 100%)" fill-opacity="1" stroke-width="2" stroke-linecap="butt" stroke-linejoin="miter" stroke="rgb(0%, 0%, 0%)" stroke-opacity="1" stroke-miterlimit="10" d="M 122.398438 50.398438 L 129.601562 57.601562 L 122.398438 64.800781 L 115.199219 57.601562 Z M 122.398438 50.398438 "/>
<path fill-rule="nonzero" fill="rgb(0%, 0%, 100%)" fill-opacity="1" d="M 129.601562 57.601562 L 136.800781 64.800781 L 129.601562 72 L 122.398438 64.800781 Z M 129.601562 57.601562 "/>
<path fill-rule="nonzero" fill="rgb(0%, 0%, 100%)" fill-opacity="1" stroke-width="2" stroke-linecap="butt" stroke-linejoin="miter" stroke="rgb(0%, 0%, 0%)" stroke-opacity="1" stroke-miterlimit="10" d="M 129.601562 57.601562 L 122.398438 64.800781 L 129.601562 72 L 136.800781 64.800781 Z M 129.601562 57.601562 "/>
<path fill-rule="nonzero" fill="rgb(0%, 0%, 100%)" fill-opacity="1" d="M 72 14.398438 L 79.199219 21.601562 L 72 28.800781 L 64.800781 21.601562 Z M 72 14.398438 "/>
<path fill-rule="nonzero" fill="rgb(0%, 0%, 100%)" fill-opacity="1" stroke-width="2" stroke-linecap="butt" stroke-linejoin="miter" stroke="rgb(0%, 0%, 0%)" stroke-opacity="1" stroke-miterlimit="10" d="M 72 14.398438 L 64.800781 21.601562 L 72 28.800781 L 79.199219 21.601562 Z M 72 14.398438 "/>
<path fill-rule="nonzero" fill="rgb(0%, 0%, 100%)" fill-opacity="1" d="M 79.199219 21.601562 L 72 28.800781 L 79.199219 36 L 86.398438 28.800781 Z M 79.199219 21.601562 "/>
<path fill-rule="nonzero" fill="rgb(0%, 0%, 100%)" fill-opacity="1" stroke-width="2" stroke-linecap="butt" stroke-linejoin="miter" stroke="rgb(0%, 0%, 0%)" stroke-opacity="1" stroke-miterlimit="10" d="M 79.199219 21.601562 L 86.398438 28.800781 L 79.199219 36 L 72 28.800781 Z M 79.199219 21.601562 "/>
<path fill-rule="nonzero" fill="rgb(0%, 0%, 100%)" fill-opacity="1" d="M 86.398438 28.800781 L 93.601562 36 L 86.398438 43.199219 L 79.199219 36 Z M 86.398438 28.800781 "/>
<path fill-rule="nonzero" fill="rgb(0%, 0%, 100%)" fill-opacity="1" stroke-width="2" stroke-linecap="butt" stroke-linejoin="miter" stroke="rgb(0%, 0%, 0%)" stroke-opacity="1" stroke-miterlimit="10" d="M 86.398438 28.800781 L 79.199219 36 L 86.398438 43.199219 L 93.601562 36 Z M 86.398438 28.800781 "/>
<path fill-rule="nonzero" fill="rgb(0%, 0%, 100%)" fill-opacity="1" d="M 93.601562 36 L 86.398438 43.199219 L 93.601562 50.398438 L 100.800781 43.199219 Z M 93.601562 36 "/>
<path fill-rule="nonzero" fill="rgb(0%, 0%, 100%)" fill-opacity="1" stroke-width="2" stroke-linecap="butt" stroke-linejoin="miter" stroke="rgb(0%, 0%, 0%)" stroke-opacity="1" stroke-miterlimit="10" d="M 93.601562 36 L 100.800781 43.199219 L 93.601562 50.398438 L 86.398438 43.199219 Z M 93.601562 36 "/>
<path fill-rule="nonzero" fill="rgb(0%, 0%, 100%)" fill-opacity="1" d="M 100.800781 43.199219 L 108 50.398438 L 100.800781 57.601562 L 93.601562 50.398438 Z M 100.800781 43.199219 "/>
<path fill-rule="nonzero" fill="rgb(0%, 0%, 100%)" fill-opacity="1" stroke-width="2" stroke-linecap="butt" stroke-linejoin="miter" stroke="rgb(0%, 0%, 0%)" stroke-opacity="1" stroke-miterlimit="10" d="M 100.800781 43.199219 L 93.601562 50.398438 L 100.800781 57.601562 L 108 50.398438 Z M 100.800781 43.199219 "/>
<path fill-rule="nonzero" fill="rgb(0%, 0%, 100%)" fill-opacity="1" d="M 108 50.398438 L 100.800781 57.601562 L 108 64.800781 L 115.199219 57.601562 Z M 108 50.398438 "/>
<path fill-rule="nonzero" fill="rgb(0%, 0%, 100%)" fill-opacity="1" stroke-width="2" stroke-linecap="butt" stroke-linejoin="miter" stroke="rgb(0%, 0%, 0%)" stroke-opacity="1" stroke-miterlimit="10" d="M 108 50.398438 L 115.199219 57.601562 L 108 64.800781 L 100.800781 57.601562 Z M 108 50.398438 "/>
<path fill-rule="nonzero" fill="rgb(0%, 0%, 100%)" fill-opacity="1" d="M 115.199219 57.601562 L 122.398438 64.800781 L 115.199219 72 L 108 64.800781 Z M 115.199219 57.601562 "/>
<path fill-rule="nonzero" fill="rgb(0%, 0%, 100%)" fill-opacity="1" stroke-width="2" stroke-linecap="butt" stroke-linejoin="miter" stroke="rgb(0%, 0%, 0%)" stroke-opacity="1" stroke-miterlimit="10" d="M 115.199219 57.601562 L 108 64.800781 L 115.199219 72 L 122.398438 64.800781 Z M 115.199219 57.601562 "/>
<path fill-rule="nonzero" fill="rgb(0%, 0%, 100%)" fill-opacity="1" d="M 122.398438 64.800781 L 115.199219 72 L 122.398438 79.199219 L 129.601562 72 Z M 122.398438 64.800781 "/>
<path fill-rule="nonzero" fill="rgb(0%, 0%, 100%)" fill-opacity="1" stroke-width="2" stroke-linecap="butt" stroke-linejoin="miter" stroke="rgb(0%, 0%, 0%)" stroke-opacity="1" stroke-miterlimit="10" d="M 122.398438 64.800781 L 129.601562 72 L 122.398438 79.199219 L 115.199219 72 Z M 122.398438 64.800781 "/>
<path fill-rule="nonzero" fill="rgb(0%, 0%, 100%)" fill-opacity="1" d="M 129.601562 72 L 136.800781 79.199219 L 129.601562 86.398438 L 122.398438 79.199219 Z M 129.601562 72 "/>
<path fill-rule="nonzero" fill="rgb(0%, 0%, 100%)" fill-opacity="1" stroke-width="2" stroke-linecap="butt" stroke-linejoin="miter" stroke="rgb(0%, 0%, 0%)" stroke-opacity="1" stroke-miterlimit="10" d="M 129.601562 72 L 122.398438 79.199219 L 129.601562 86.398438 L 136.800781 79.199219 Z M 129.601562 72 "/>
<path fill-rule="nonzero" fill="rgb(0%, 0%, 100%)" fill-opacity="1" d="M 57.601562 14.398438 L 64.800781 21.601562 L 57.601562 28.800781 L 50.398438 21.601562 Z M 57.601562 14.398438 "/>
<path fill-rule="nonzero" fill="rgb(0%, 0%, 100%)" fill-opacity="1" stroke-width="2" stroke-linecap="butt" stroke-linejoin="miter" stroke="rgb(0%, 0%, 0%)" stroke-opacity="1" stroke-miterlimit="10" d="M 57.601562 14.398438 L 50.398438 21.601562 L 57.601562 28.800781 L 64.800781 21.601562 Z M 57.601562 14.398438 "/>
<path fill-rule="nonzero" fill="rgb(0%, 0%, 100%)" fill-opacity="1" d="M 64.800781 21.601562 L 57.601562 28.800781 L 64.800781 36 L 72 28.800781 Z M 64.800781 21.601562 "/>
<path fill-rule="nonzero" fill="rgb(0%, 0%, 100%)" fill-opacity="1" stroke-width="2" stroke-linecap="butt" stroke-linejoin="miter" stroke="rgb(0%, 0%, 0%)" stroke-opacity="1" stroke-miterlimit="10" d="M 64.800781 21.601562 L 72 28.800781 L 64.800781 36 L 57.601562 28.800781 Z M 64.800781 21.601562 "/>
<path fill-rule="nonzero" fill="rgb(0%, 0%, 100%)" fill-opacity="1" d="M 72 28.800781 L 79.199219 36 L 72 43.199219 L 64.800781 36 Z M 72 28.800781 "/>
<path fill-rule="nonzero" fill="rgb(0%, 0%, 100%)" fill-opacity="1" stroke-width="2" stroke-linecap="butt" stroke-linejoin="miter" stroke="rgb(0%, 0%, 0%)" stroke-opacity="1" stroke-miterlimit="10" d="M 72 28.800781 L 64.800781 36 L 72 43.199219 L 79.199219 36 Z M 72 28.800781 "/>
<path fill-rule="nonzero" fill="rgb(0%, 0%, 100%)" fill-opacity="1" d="M 79.199219 36 L 72 43.199219 L 79.199219 50.398438 L 86.398438 43.199219 Z M 79.199219 36 "/>
<path fill-rule="nonzero" fill="rgb(0%, 0%, 100%)" fill-opacity="1" stroke-width="2" stroke-linecap="butt" stroke-linejoin="miter" stroke="rgb(0%, 0%, 0%)" stroke-opacity="1" stroke-miterlimit="10" d="M 79.199219 36 L 86.398438 43.199219 L 79.199219 50.398438 L 72 43.199219 Z M 79.199219 36 "/>
<path fill-rule="nonzero" fill="rgb(0%, 0%, 100%)" fill-opacity="1" d="M 86.398438 43.199219 L 93.601562 50.398438 L 86.398438 57.601562 L 79.199219 50.398438 Z M 86.398438 43.199219 "/>
<path fill-rule="nonzero" fill="rgb(0%, 0%, 100%)" fill-opacity="1" stroke-width="2" stroke-linecap="butt" stroke-linejoin="miter" stroke="rgb(0%, 0%, 0%)" stroke-opacity="1" stroke-miterlimit="10" d="M 86.398438 43.199219 L 79.199219 50.398438 L 86.398438 57.601562 L 93.601562 50.398438 Z M 86.398438 43.199219 "/>
<path fill-rule="nonzero" fill="rgb(0%, 0%, 100%)" fill-opacity="1" d="M 93.601562 50.398438 L 86.398438 57.601562 L 93.601562 64.800781 L 100.800781 57.601562 Z M 93.601562 50.398438 "/>
<path fill-rule="nonzero" fill="rgb(0%, 0%, 100%)" fill-opacity="1" stroke-width="2" stroke-linecap="butt" stroke-linejoin="miter" stroke="rgb(0%, 0%, 0%)" stroke-opacity="1" stroke-miterlimit="10" d="M 93.601562 50.398438 L 100.800781 57.601562 L 93.601562 64.800781 L 86.398438 57.601562 Z M 93.601562 50.398438 "/>
<path fill-rule="nonzero" fill="rgb(0%, 0%, 100%)" fill-opacity="1" d="M 100.800781 57.601562 L 108 64.800781 L 100.800781 72 L 93.601562 64.800781 Z M 100.800781 57.601562 "/>
<path fill-rule="nonzero" fill="rgb(0%, 0%, 100%)" fill-opacity="1" stroke-width="2" stroke-linecap="butt" stroke-linejoin="miter" stroke="rgb(0%, 0%, 0%)" stroke-opacity="1" stroke-miterlimit="10" d="M 100.800781 57.601562 L 93.601562 64.800781 L 100.800781 72 L 108 64.800781 Z M 100.800781 57.601562 "/>
<path fill-rule="nonzero" fill="rgb(0%, 0%, 100%)" fill-opacity="1" d="M 108 64.800781 L 100.800781 72 L 108 79.199219 L 115.199219 72 Z M 108 64.800781 "/>
<path fill-rule="nonzero" fill="rgb(0%, 0%, 100%)" fill-opacity="1" stroke-width="2" stroke-linecap="butt" stroke-linejoin="miter" stroke="rgb(0%, 0%, 0%)" stroke-opacity="1" stroke-miterlimit="10" d="M 108 64.800781 L 115.199219 72 L 108 79.199219 L 100.800781 72 Z M 108 64.800781 "/>
<path fill-rule="nonzero" fill="rgb(0%, 0%, 100%)" fill-opacity="1" d="M 115.199219 72 L 122.398438 79.199219 L 115.199219 86.398438 L 108 79.199219 Z M 115.199219 72 "/>
<path fill-rule="nonzero" fill="rgb(100%, 100%, 0%)" fill-opacity="1" stroke-width="2" stroke-linecap="butt" stroke-linejoin="miter" stroke="rgb(0%, 0%, 0%)" stroke-opacity="1" stroke-miterlimit="10" d="M 115.199219 72 L 108 79.199219 L 115.199219 86.398438 L 122.398438 79.199219 Z M 115.199219 72 "/>
<path fill-rule="nonzero" fill="rgb(100%, 100%, 0%)" fill-opacity="1" d="M 122.398438 79.199219 L 115.199219 86.398438 L 122.398438 93.601562 L 129.601562 86.398438 Z M 122.398438 79.199219 "/>
<path fill-rule="nonzero" fill="rgb(0%, 0%, 100%)" fill-opacity="1" stroke-width="2" stroke-linecap="butt" stroke-linejoin="miter" stroke="rgb(0%, 0%, 0%)" stroke-opacity="1" stroke-miterlimit="10" d="M 122.398438 79.199219 L 129.601562 86.398438 L 122.398438 93.601562 L 115.199219 86.398438 Z M 122.398438 79.199219 "/>
<path fill-rule="nonzero" fill="rgb(0%, 0%, 100%)" fill-opacity="1" d="M 129.601562 86.398438 L 136.800781 93.601562 L 129.601562 100.800781 L 122.398438 93.601562 Z M 129.601562 86.398438 "/>
<path fill-rule="nonzero" fill="rgb(0%, 0%, 100%)" fill-opacity="1" stroke-width="2" stroke-linecap="butt" stroke-linejoin="miter" stroke="rgb(0%, 0%, 0%)" stroke-opacity="1" stroke-miterlimit="10" d="M 129.601562 86.398438 L 122.398438 93.601562 L 129.601562 100.800781 L 136.800781 93.601562 Z M 129.601562 86.398438 "/>
<path fill-rule="nonzero" fill="rgb(0%, 0%, 100%)" fill-opacity="1" d="M 43.199219 14.398438 L 50.398438 21.601562 L 43.199219 28.800781 L 36 21.601562 Z M 43.199219 14.398438 "/>
<path fill-rule="nonzero" fill="rgb(0%, 0%, 100%)" fill-opacity="1" stroke-width="2" stroke-linecap="butt" stroke-linejoin="miter" stroke="rgb(0%, 0%, 0%)" stroke-opacity="1" stroke-miterlimit="10" d="M 43.199219 14.398438 L 36 21.601562 L 43.199219 28.800781 L 50.398438 21.601562 Z M 43.199219 14.398438 "/>
<path fill-rule="nonzero" fill="rgb(0%, 0%, 100%)" fill-opacity="1" d="M 50.398438 21.601562 L 43.199219 28.800781 L 50.398438 36 L 57.601562 28.800781 Z M 50.398438 21.601562 "/>
<path fill-rule="nonzero" fill="rgb(0%, 0%, 100%)" fill-opacity="1" stroke-width="2" stroke-linecap="butt" stroke-linejoin="miter" stroke="rgb(0%, 0%, 0%)" stroke-opacity="1" stroke-miterlimit="10" d="M 50.398438 21.601562 L 57.601562 28.800781 L 50.398438 36 L 43.199219 28.800781 Z M 50.398438 21.601562 "/>
<path fill-rule="nonzero" fill="rgb(0%, 0%, 100%)" fill-opacity="1" d="M 57.601562 28.800781 L 64.800781 36 L 57.601562 43.199219 L 50.398438 36 Z M 57.601562 28.800781 "/>
<path fill-rule="nonzero" fill="rgb(0%, 0%, 100%)" fill-opacity="1" stroke-width="2" stroke-linecap="butt" stroke-linejoin="miter" stroke="rgb(0%, 0%, 0%)" stroke-opacity="1" stroke-miterlimit="10" d="M 57.601562 28.800781 L 50.398438 36 L 57.601562 43.199219 L 64.800781 36 Z M 57.601562 28.800781 "/>
<path fill-rule="nonzero" fill="rgb(0%, 0%, 100%)" fill-opacity="1" d="M 64.800781 36 L 57.601562 43.199219 L 64.800781 50.398438 L 72 43.199219 Z M 64.800781 36 "/>
<path fill-rule="nonzero" fill="rgb(0%, 0%, 100%)" fill-opacity="1" stroke-width="2" stroke-linecap="butt" stroke-linejoin="miter" stroke="rgb(0%, 0%, 0%)" stroke-opacity="1" stroke-miterlimit="10" d="M 64.800781 36 L 72 43.199219 L 64.800781 50.398438 L 57.601562 43.199219 Z M 64.800781 36 "/>
<path fill-rule="nonzero" fill="rgb(0%, 0%, 100%)" fill-opacity="1" d="M 72 43.199219 L 79.199219 50.398438 L 72 57.601562 L 64.800781 50.398438 Z M 72 43.199219 "/>
<path fill-rule="nonzero" fill="rgb(0%, 0%, 100%)" fill-opacity="1" stroke-width="2" stroke-linecap="butt" stroke-linejoin="miter" stroke="rgb(0%, 0%, 0%)" stroke-opacity="1" stroke-miterlimit="10" d="M 72 43.199219 L 64.800781 50.398438 L 72 57.601562 L 79.199219 50.398438 Z M 72 43.199219 "/>
<path fill-rule="nonzero" fill="rgb(0%, 0%, 100%)" fill-opacity="1" d="M 79.199219 50.398438 L 72 57.601562 L 79.199219 64.800781 L 86.398438 57.601562 Z M 79.199219 50.398438 "/>
<path fill-rule="nonzero" fill="rgb(0%, 0%, 100%)" fill-opacity="1" stroke-width="2" stroke-linecap="butt" stroke-linejoin="miter" stroke="rgb(0%, 0%, 0%)" stroke-opacity="1" stroke-miterlimit="10" d="M 79.199219 50.398438 L 86.398438 57.601562 L 79.199219 64.800781 L 72 57.601562 Z M 79.199219 50.398438 "/>
<path fill-rule="nonzero" fill="rgb(0%, 0%, 100%)" fill-opacity="1" d="M 86.398438 57.601562 L 93.601562 64.800781 L 86.398438 72 L 79.199219 64.800781 Z M 86.398438 57.601562 "/>
<path fill-rule="nonzero" fill="rgb(100%, 100%, 0%)" fill-opacity="1" stroke-width="2" stroke-linecap="butt" stroke-linejoin="miter" stroke="rgb(0%, 0%, 0%)" stroke-opacity="1" stroke-miterlimit="10" d="M 86.398438 57.601562 L 79.199219 64.800781 L 86.398438 72 L 93.601562 64.800781 Z M 86.398438 57.601562 "/>
<path fill-rule="nonzero" fill="rgb(100%, 100%, 0%)" fill-opacity="1" d="M 93.601562 64.800781 L 86.398438 72 L 93.601562 79.199219 L 100.800781 72 Z M 93.601562 64.800781 "/>
<path fill-rule="nonzero" fill="rgb(0%, 0%, 100%)" fill-opacity="1" stroke-width="2" stroke-linecap="butt" stroke-linejoin="miter" stroke="rgb(0%, 0%, 0%)" stroke-opacity="1" stroke-miterlimit="10" d="M 93.601562 64.800781 L 100.800781 72 L 93.601562 79.199219 L 86.398438 72 Z M 93.601562 64.800781 "/>
<path fill-rule="nonzero" fill="rgb(0%, 0%, 100%)" fill-opacity="1" d="M 100.800781 72 L 108 79.199219 L 100.800781 86.398438 L 93.601562 79.199219 Z M 100.800781 72 "/>
<path fill-rule="nonzero" fill="rgb(0%, 0%, 100%)" fill-opacity="1" stroke-width="2" stroke-linecap="butt" stroke-linejoin="miter" stroke="rgb(0%, 0%, 0%)" stroke-opacity="1" stroke-miterlimit="10" d="M 100.800781 72 L 93.601562 79.199219 L 100.800781 86.398438 L 108 79.199219 Z M 100.800781 72 "/>
<path fill-rule="nonzero" fill="rgb(0%, 0%, 100%)" fill-opacity="1" d="M 108 79.199219 L 100.800781 86.398438 L 108 93.601562 L 115.199219 86.398438 Z M 108 79.199219 "/>
<path fill-rule="nonzero" fill="rgb(0%, 0%, 100%)" fill-opacity="1" stroke-width="2" stroke-linecap="butt" stroke-linejoin="miter" stroke="rgb(0%, 0%, 0%)" stroke-opacity="1" stroke-miterlimit="10" d="M 108 79.199219 L 115.199219 86.398438 L 108 93.601562 L 100.800781 86.398438 Z M 108 79.199219 "/>
<path fill-rule="nonzero" fill="rgb(0%, 0%, 100%)" fill-opacity="1" d="M 115.199219 86.398438 L 122.398438 93.601562 L 115.199219 100.800781 L 108 93.601562 Z M 115.199219 86.398438 "/>
<path fill-rule="nonzero" fill="rgb(0%, 0%, 100%)" fill-opacity="1" stroke-width="2" stroke-linecap="butt" stroke-linejoin="miter" stroke="rgb(0%, 0%, 0%)" stroke-opacity="1" stroke-miterlimit="10" d="M 115.199219 86.398438 L 108 93.601562 L 115.199219 100.800781 L 122.398438 93.601562 Z M 115.199219 86.398438 "/>
<path fill-rule="nonzero" fill="rgb(0%, 0%, 100%)" fill-opacity="1" d="M 122.398438 93.601562 L 115.199219 100.800781 L 122.398438 108 L 129.601562 100.800781 Z M 122.398438 93.601562 "/>
<path fill-rule="nonzero" fill="rgb(0%, 0%, 100%)" fill-opacity="1" stroke-width="2" stroke-linecap="butt" stroke-linejoin="miter" stroke="rgb(0%, 0%, 0%)" stroke-opacity="1" stroke-miterlimit="10" d="M 122.398438 93.601562 L 129.601562 100.800781 L 122.398438 108 L 115.199219 100.800781 Z M 122.398438 93.601562 "/>
<path fill-rule="nonzero" fill="rgb(0%, 0%, 100%)" fill-opacity="1" d="M 129.601562 100.800781 L 136.800781 108 L 129.601562 115.199219 L 122.398438 108 Z M 129.601562 100.800781 "/>
<path fill-rule="nonzero" fill="rgb(0%, 0%, 100%)" fill-opacity="1" stroke-width="2" stroke-linecap="butt" stroke-linejoin="miter" stroke="rgb(0%, 0%, 0%)" stroke-opacity="1" stroke-miterlimit="10" d="M 129.601562 100.800781 L 122.398438 108 L 129.601562 115.199219 L 136.800781 108 Z M 129.601562 100.800781 "/>
<path fill-rule="nonzero" fill="rgb(0%, 0%, 100%)" fill-opacity="1" d="M 28.800781 14.398438 L 36 21.601562 L 28.800781 28.800781 L 21.601562 21.601562 Z M 28.800781 14.398438 "/>
<path fill-rule="nonzero" fill="rgb(0%, 0%, 100%)" fill-opacity="1" stroke-width="2" stroke-linecap="butt" stroke-linejoin="miter" stroke="rgb(0%, 0%, 0%)" stroke-opacity="1" stroke-miterlimit="10" d="M 28.800781 14.398438 L 21.601562 21.601562 L 28.800781 28.800781 L 36 21.601562 Z M 28.800781 14.398438 "/>
<path fill-rule="nonzero" fill="rgb(0%, 0%, 100%)" fill-opacity="1" d="M 36 21.601562 L 28.800781 28.800781 L 36 36 L 43.199219 28.800781 Z M 36 21.601562 "/>
<path fill-rule="nonzero" fill="rgb(0%, 0%, 100%)" fill-opacity="1" stroke-width="2" stroke-linecap="butt" stroke-linejoin="miter" stroke="rgb(0%, 0%, 0%)" stroke-opacity="1" stroke-miterlimit="10" d="M 36 21.601562 L 43.199219 28.800781 L 36 36 L 28.800781 28.800781 Z M 36 21.601562 "/>
<path fill-rule="nonzero" fill="rgb(0%, 0%, 100%)" fill-opacity="1" d="M 43.199219 28.800781 L 50.398438 36 L 43.199219 43.199219 L 36 36 Z M 43.199219 28.800781 "/>
<path fill-rule="nonzero" fill="rgb(0%, 0%, 100%)" fill-opacity="1" stroke-width="2" stroke-linecap="butt" stroke-linejoin="miter" stroke="rgb(0%, 0%, 0%)" stroke-opacity="1" stroke-miterlimit="10" d="M 43.199219 28.800781 L 36 36 L 43.199219 43.199219 L 50.398438 36 Z M 43.199219 28.800781 "/>
<path fill-rule="nonzero" fill="rgb(0%, 0%, 100%)" fill-opacity="1" d="M 50.398438 36 L 43.199219 43.199219 L 50.398438 50.398438 L 57.601562 43.199219 Z M 50.398438 36 "/>
<path fill-rule="nonzero" fill="rgb(0%, 0%, 100%)" fill-opacity="1" stroke-width="2" stroke-linecap="butt" stroke-linejoin="miter" stroke="rgb(0%, 0%, 0%)" stroke-opacity="1" stroke-miterlimit="10" d="M 50.398438 36 L 57.601562 43.199219 L 50.398438 50.398438 L 43.199219 43.199219 Z M 50.398438 36 "/>
<path fill-rule="nonzero" fill="rgb(0%, 0%, 100%)" fill-opacity="1" d="M 57.601562 43.199219 L 64.800781 50.398438 L 57.601562 57.601562 L 50.398438 50.398438 Z M 57.601562 43.199219 "/>
<path fill-rule="nonzero" fill="rgb(100%, 100%, 0%)" fill-opacity="1" stroke-width="2" stroke-linecap="butt" stroke-linejoin="miter" stroke="rgb(0%, 0%, 0%)" stroke-opacity="1" stroke-miterlimit="10" d="M 57.601562 43.199219 L 50.398438 50.398438 L 57.601562 57.601562 L 64.800781 50.398438 Z M 57.601562 43.199219 "/>
<path fill-rule="nonzero" fill="rgb(100%, 100%, 0%)" fill-opacity="1" d="M 64.800781 50.398438 L 57.601562 57.601562 L 64.800781 64.800781 L 72 57.601562 Z M 64.800781 50.398438 "/>
<path fill-rule="nonzero" fill="rgb(0%, 0%, 100%)" fill-opacity="1" stroke-width="2" stroke-linecap="butt" stroke-linejoin="miter" stroke="rgb(0%, 0%, 0%)" stroke-opacity="1" stroke-miterlimit="10" d="M 64.800781 50.398438 L 72 57.601562 L 64.800781 64.800781 L 57.601562 57.601562 Z M 64.800781 50.398438 "/>
<path fill-rule="nonzero" fill="rgb(0%, 0%, 100%)" fill-opacity="1" d="M 72 57.601562 L 79.199219 64.800781 L 72 72 L 64.800781 64.800781 Z M 72 57.601562 "/>
<path fill-rule="nonzero" fill="rgb(0%, 0%, 100%)" fill-opacity="1" stroke-width="2" stroke-linecap="butt" stroke-linejoin="miter" stroke="rgb(0%, 0%, 0%)" stroke-opacity="1" stroke-miterlimit="10" d="M 72 57.601562 L 64.800781 64.800781 L 72 72 L 79.199219 64.800781 Z M 72 57.601562 "/>
<path fill-rule="nonzero" fill="rgb(0%, 0%, 100%)" fill-opacity="1" d="M 79.199219 64.800781 L 72 72 L 79.199219 79.199219 L 86.398438 72 Z M 79.199219 64.800781 "/>
<path fill-rule="nonzero" fill="rgb(0%, 0%, 100%)" fill-opacity="1" stroke-width="2" stroke-linecap="butt" stroke-linejoin="miter" stroke="rgb(0%, 0%, 0%)" stroke-opacity="1" stroke-miterlimit="10" d="M 79.199219 64.800781 L 86.398438 72 L 79.199219 79.199219 L 72 72 Z M 79.199219 64.800781 "/>
<path fill-rule="nonzero" fill="rgb(0%, 0%, 100%)" fill-opacity="1" d="M 86.398438 72 L 93.601562 79.199219 L 86.398438 86.398438 L 79.199219 79.199219 Z M 86.398438 72 "/>
<path fill-rule="nonzero" fill="rgb(0%, 0%, 100%)" fill-opacity="1" stroke-width="2" stroke-linecap="butt" stroke-linejoin="miter" stroke="rgb(0%, 0%, 0%)" stroke-opacity="1" stroke-miterlimit="10" d="M 86.398438 72 L 79.199219 79.199219 L 86.398438 86.398438 L 93.601562 79.199219 Z M 86.398438 72 "/>
<path fill-rule="nonzero" fill="rgb(0%, 0%, 100%)" fill-opacity="1" d="M 93.601562 79.199219 L 86.398438 86.398438 L 93.601562 93.601562 L 100.800781 86.398438 Z M 93.601562 79.199219 "/>
<path fill-rule="nonzero" fill="rgb(0%, 0%, 100%)" fill-opacity="1" stroke-width="2" stroke-linecap="butt" stroke-linejoin="miter" stroke="rgb(0%, 0%, 0%)" stroke-opacity="1" stroke-miterlimit="10" d="M 93.601562 79.199219 L 100.800781 86.398438 L 93.601562 93.601562 L 86.398438 86.398438 Z M 93.601562 79.199219 "/>
<path fill-rule="nonzero" fill="rgb(0%, 0%, 100%)" fill-opacity="1" d="M 100.800781 86.398438 L 108 93.601562 L 100.800781 100.800781 L 93.601562 93.601562 Z M 100.800781 86.398438 "/>
<path fill-rule="nonzero" fill="rgb(0%, 0%, 100%)" fill-opacity="1" stroke-width="2" stroke-linecap="butt" stroke-linejoin="miter" stroke="rgb(0%, 0%, 0%)" stroke-opacity="1" stroke-miterlimit="10" d="M 100.800781 86.398438 L 93.601562 93.601562 L 100.800781 100.800781 L 108 93.601562 Z M 100.800781 86.398438 "/>
<path fill-rule="nonzero" fill="rgb(0%, 0%, 100%)" fill-opacity="1" d="M 108 93.601562 L 100.800781 100.800781 L 108 108 L 115.199219 100.800781 Z M 108 93.601562 "/>
<path fill-rule="nonzero" fill="rgb(0%, 0%, 100%)" fill-opacity="1" stroke-width="2" stroke-linecap="butt" stroke-linejoin="miter" stroke="rgb(0%, 0%, 0%)" stroke-opacity="1" stroke-miterlimit="10" d="M 108 93.601562 L 115.199219 100.800781 L 108 108 L 100.800781 100.800781 Z M 108 93.601562 "/>
<path fill-rule="nonzero" fill="rgb(0%, 0%, 100%)" fill-opacity="1" d="M 115.199219 100.800781 L 122.398438 108 L 115.199219 115.199219 L 108 108 Z M 115.199219 100.800781 "/>
<path fill-rule="nonzero" fill="rgb(0%, 0%, 100%)" fill-opacity="1" stroke-width="2" stroke-linecap="butt" stroke-linejoin="miter" stroke="rgb(0%, 0%, 0%)" stroke-opacity="1" stroke-miterlimit="10" d="M 115.199219 100.800781 L 108 108 L 115.199219 115.199219 L 122.398438 108 Z M 115.199219 100.800781 "/>
<path fill-rule="nonzero" fill="rgb(0%, 0%, 100%)" fill-opacity="1" d="M 122.398438 108 L 115.199219 115.199219 L 122.398438 122.398438 L 129.601562 115.199219 Z M 122.398438 108 "/>
<path fill-rule="nonzero" fill="rgb(0%, 0%, 100%)" fill-opacity="1" stroke-width="2" stroke-linecap="butt" stroke-linejoin="miter" stroke="rgb(0%, 0%, 0%)" stroke-opacity="1" stroke-miterlimit="10" d="M 122.398438 108 L 129.601562 115.199219 L 122.398438 122.398438 L 115.199219 115.199219 Z M 122.398438 108 "/>
<path fill-rule="nonzero" fill="rgb(0%, 0%, 100%)" fill-opacity="1" d="M 129.601562 115.199219 L 136.800781 122.398438 L 129.601562 129.601562 L 122.398438 122.398438 Z M 129.601562 115.199219 "/>
<path fill-rule="nonzero" fill="rgb(0%, 0%, 100%)" fill-opacity="1" stroke-width="2" stroke-linecap="butt" stroke-linejoin="miter" stroke="rgb(0%, 0%, 0%)" stroke-opacity="1" stroke-miterlimit="10" d="M 129.601562 115.199219 L 122.398438 122.398438 L 129.601562 129.601562 L 136.800781 122.398438 Z M 129.601562 115.199219 "/>
<path fill-rule="nonzero" fill="rgb(0%, 0%, 100%)" fill-opacity="1" d="M 21.601562 21.601562 L 14.398438 28.800781 L 21.601562 36 L 28.800781 28.800781 Z M 21.601562 21.601562 "/>
<path fill-rule="nonzero" fill="rgb(0%, 0%, 100%)" fill-opacity="1" stroke-width="2" stroke-linecap="butt" stroke-linejoin="miter" stroke="rgb(0%, 0%, 0%)" stroke-opacity="1" stroke-miterlimit="10" d="M 21.601562 21.601562 L 28.800781 28.800781 L 21.601562 36 L 14.398438 28.800781 Z M 21.601562 21.601562 "/>
<path fill-rule="nonzero" fill="rgb(0%, 0%, 100%)" fill-opacity="1" d="M 28.800781 28.800781 L 36 36 L 28.800781 43.199219 L 21.601562 36 Z M 28.800781 28.800781 "/>
<path fill-rule="nonzero" fill="rgb(100%, 100%, 0%)" fill-opacity="1" stroke-width="2" stroke-linecap="butt" stroke-linejoin="miter" stroke="rgb(0%, 0%, 0%)" stroke-opacity="1" stroke-miterlimit="10" d="M 28.800781 28.800781 L 21.601562 36 L 28.800781 43.199219 L 36 36 Z M 28.800781 28.800781 "/>
<path fill-rule="nonzero" fill="rgb(100%, 100%, 0%)" fill-opacity="1" d="M 36 36 L 28.800781 43.199219 L 36 50.398438 L 43.199219 43.199219 Z M 36 36 "/>
<path fill-rule="nonzero" fill="rgb(0%, 0%, 100%)" fill-opacity="1" stroke-width="2" stroke-linecap="butt" stroke-linejoin="miter" stroke="rgb(0%, 0%, 0%)" stroke-opacity="1" stroke-miterlimit="10" d="M 36 36 L 43.199219 43.199219 L 36 50.398438 L 28.800781 43.199219 Z M 36 36 "/>
<path fill-rule="nonzero" fill="rgb(0%, 0%, 100%)" fill-opacity="1" d="M 43.199219 43.199219 L 50.398438 50.398438 L 43.199219 57.601562 L 36 50.398438 Z M 43.199219 43.199219 "/>
<path fill-rule="nonzero" fill="rgb(0%, 0%, 100%)" fill-opacity="1" stroke-width="2" stroke-linecap="butt" stroke-linejoin="miter" stroke="rgb(0%, 0%, 0%)" stroke-opacity="1" stroke-miterlimit="10" d="M 43.199219 43.199219 L 36 50.398438 L 43.199219 57.601562 L 50.398438 50.398438 Z M 43.199219 43.199219 "/>
<path fill-rule="nonzero" fill="rgb(0%, 0%, 100%)" fill-opacity="1" d="M 50.398438 50.398438 L 43.199219 57.601562 L 50.398438 64.800781 L 57.601562 57.601562 Z M 50.398438 50.398438 "/>
<path fill-rule="nonzero" fill="rgb(0%, 0%, 100%)" fill-opacity="1" stroke-width="2" stroke-linecap="butt" stroke-linejoin="miter" stroke="rgb(0%, 0%, 0%)" stroke-opacity="1" stroke-miterlimit="10" d="M 50.398438 50.398438 L 57.601562 57.601562 L 50.398438 64.800781 L 43.199219 57.601562 Z M 50.398438 50.398438 "/>
<path fill-rule="nonzero" fill="rgb(0%, 0%, 100%)" fill-opacity="1" d="M 57.601562 57.601562 L 64.800781 64.800781 L 57.601562 72 L 50.398438 64.800781 Z M 57.601562 57.601562 "/>
<path fill-rule="nonzero" fill="rgb(0%, 0%, 100%)" fill-opacity="1" stroke-width="2" stroke-linecap="butt" stroke-linejoin="miter" stroke="rgb(0%, 0%, 0%)" stroke-opacity="1" stroke-miterlimit="10" d="M 57.601562 57.601562 L 50.398438 64.800781 L 57.601562 72 L 64.800781 64.800781 Z M 57.601562 57.601562 "/>
<path fill-rule="nonzero" fill="rgb(0%, 0%, 100%)" fill-opacity="1" d="M 64.800781 64.800781 L 57.601562 72 L 64.800781 79.199219 L 72 72 Z M 64.800781 64.800781 "/>
<path fill-rule="nonzero" fill="rgb(0%, 0%, 100%)" fill-opacity="1" stroke-width="2" stroke-linecap="butt" stroke-linejoin="miter" stroke="rgb(0%, 0%, 0%)" stroke-opacity="1" stroke-miterlimit="10" d="M 64.800781 64.800781 L 72 72 L 64.800781 79.199219 L 57.601562 72 Z M 64.800781 64.800781 "/>
<path fill-rule="nonzero" fill="rgb(0%, 0%, 100%)" fill-opacity="1" d="M 72 72 L 79.199219 79.199219 L 72 86.398438 L 64.800781 79.199219 Z M 72 72 "/>
<path fill-rule="nonzero" fill="rgb(0%, 0%, 100%)" fill-opacity="1" stroke-width="2" stroke-linecap="butt" stroke-linejoin="miter" stroke="rgb(0%, 0%, 0%)" stroke-opacity="1" stroke-miterlimit="10" d="M 72 72 L 64.800781 79.199219 L 72 86.398438 L 79.199219 79.199219 Z M 72 72 "/>
<path fill-rule="nonzero" fill="rgb(0%, 0%, 100%)" fill-opacity="1" d="M 79.199219 79.199219 L 72 86.398438 L 79.199219 93.601562 L 86.398438 86.398438 Z M 79.199219 79.199219 "/>
<path fill-rule="nonzero" fill="rgb(0%, 0%, 100%)" fill-opacity="1" stroke-width="2" stroke-linecap="butt" stroke-linejoin="miter" stroke="rgb(0%, 0%, 0%)" stroke-opacity="1" stroke-miterlimit="10" d="M 79.199219 79.199219 L 86.398438 86.398438 L 79.199219 93.601562 L 72 86.398438 Z M 79.199219 79.199219 "/>
<path fill-rule="nonzero" fill="rgb(0%, 0%, 100%)" fill-opacity="1" d="M 86.398438 86.398438 L 93.601562 93.601562 L 86.398438 100.800781 L 79.199219 93.601562 Z M 86.398438 86.398438 "/>
<path fill-rule="nonzero" fill="rgb(0%, 0%, 100%)" fill-opacity="1" stroke-width="2" stroke-linecap="butt" stroke-linejoin="miter" stroke="rgb(0%, 0%, 0%)" stroke-opacity="1" stroke-miterlimit="10" d="M 86.398438 86.398438 L 79.199219 93.601562 L 86.398438 100.800781 L 93.601562 93.601562 Z M 86.398438 86.398438 "/>
<path fill-rule="nonzero" fill="rgb(0%, 0%, 100%)" fill-opacity="1" d="M 93.601562 93.601562 L 86.398438 100.800781 L 93.601562 108 L 100.800781 100.800781 Z M 93.601562 93.601562 "/>
<path fill-rule="nonzero" fill="rgb(0%, 0%, 100%)" fill-opacity="1" stroke-width="2" stroke-linecap="butt" stroke-linejoin="miter" stroke="rgb(0%, 0%, 0%)" stroke-opacity="1" stroke-miterlimit="10" d="M 93.601562 93.601562 L 100.800781 100.800781 L 93.601562 108 L 86.398438 100.800781 Z M 93.601562 93.601562 "/>
<path fill-rule="nonzero" fill="rgb(0%, 0%, 100%)" fill-opacity="1" d="M 100.800781 100.800781 L 108 108 L 100.800781 115.199219 L 93.601562 108 Z M 100.800781 100.800781 "/>
<path fill-rule="nonzero" fill="rgb(0%, 0%, 100%)" fill-opacity="1" stroke-width="2" stroke-linecap="butt" stroke-linejoin="miter" stroke="rgb(0%, 0%, 0%)" stroke-opacity="1" stroke-miterlimit="10" d="M 100.800781 100.800781 L 93.601562 108 L 100.800781 115.199219 L 108 108 Z M 100.800781 100.800781 "/>
<path fill-rule="nonzero" fill="rgb(0%, 0%, 100%)" fill-opacity="1" d="M 108 108 L 100.800781 115.199219 L 108 122.398438 L 115.199219 115.199219 Z M 108 108 "/>
<path fill-rule="nonzero" fill="rgb(0%, 0%, 100%)" fill-opacity="1" stroke-width="2" stroke-linecap="butt" stroke-linejoin="miter" stroke="rgb(0%, 0%, 0%)" stroke-opacity="1" stroke-miterlimit="10" d="M 108 108 L 115.199219 115.199219 L 108 122.398438 L 100.800781 115.199219 Z M 108 108 "/>
<path fill-rule="nonzero" fill="rgb(0%, 0%, 100%)" fill-opacity="1" d="M 115.199219 115.199219 L 122.398438 122.398438 L 115.199219 129.601562 L 108 122.398438 Z M 115.199219 115.199219 "/>
<path fill-rule="nonzero" fill="rgb(0%, 0%, 100%)" fill-opacity="1" stroke-width="2" stroke-linecap="butt" stroke-linejoin="miter" stroke="rgb(0%, 0%, 0%)" stroke-opacity="1" stroke-miterlimit="10" d="M 115.199219 115.199219 L 108 122.398438 L 115.199219 129.601562 L 122.398438 122.398438 Z M 115.199219 115.199219 "/>
<path fill-rule="nonzero" fill="rgb(0%, 0%, 100%)" fill-opacity="1" d="M 122.398438 122.398438 L 115.199219 129.601562 L 122.398438 136.800781 L 129.601562 129.601562 Z M 122.398438 122.398438 "/>
<path fill-rule="nonzero" fill="rgb(0%, 0%, 100%)" fill-opacity="1" stroke-width="2" stroke-linecap="butt" stroke-linejoin="miter" stroke="rgb(0%, 0%, 0%)" stroke-opacity="1" stroke-miterlimit="10" d="M 122.398438 122.398438 L 129.601562 129.601562 L 122.398438 136.800781 L 115.199219 129.601562 Z M 122.398438 122.398438 "/>
<path fill-rule="nonzero" fill="rgb(0%, 0%, 100%)" fill-opacity="1" d="M 129.601562 129.601562 L 136.800781 136.800781 L 129.601562 144 L 122.398438 136.800781 Z M 129.601562 129.601562 "/>
<path fill-rule="nonzero" fill="rgb(0%, 0%, 100%)" fill-opacity="1" stroke-width="2" stroke-linecap="butt" stroke-linejoin="miter" stroke="rgb(0%, 0%, 0%)" stroke-opacity="1" stroke-miterlimit="10" d="M 129.601562 129.601562 L 122.398438 136.800781 L 129.601562 144 L 136.800781 136.800781 Z M 129.601562 129.601562 "/>
<path fill-rule="nonzero" fill="rgb(0%, 0%, 100%)" fill-opacity="1" d="M 21.601562 36 L 14.398438 43.199219 L 21.601562 50.398438 L 28.800781 43.199219 Z M 21.601562 36 "/>
<path fill-rule="nonzero" fill="rgb(0%, 0%, 100%)" fill-opacity="1" stroke-width="2" stroke-linecap="butt" stroke-linejoin="miter" stroke="rgb(0%, 0%, 0%)" stroke-opacity="1" stroke-miterlimit="10" d="M 21.601562 36 L 28.800781 43.199219 L 21.601562 50.398438 L 14.398438 43.199219 Z M 21.601562 36 "/>
<path fill-rule="nonzero" fill="rgb(0%, 0%, 100%)" fill-opacity="1" d="M 28.800781 43.199219 L 36 50.398438 L 28.800781 57.601562 L 21.601562 50.398438 Z M 28.800781 43.199219 "/>
<path fill-rule="nonzero" fill="rgb(0%, 0%, 100%)" fill-opacity="1" stroke-width="2" stroke-linecap="butt" stroke-linejoin="miter" stroke="rgb(0%, 0%, 0%)" stroke-opacity="1" stroke-miterlimit="10" d="M 28.800781 43.199219 L 21.601562 50.398438 L 28.800781 57.601562 L 36 50.398438 Z M 28.800781 43.199219 "/>
<path fill-rule="nonzero" fill="rgb(0%, 0%, 100%)" fill-opacity="1" d="M 36 50.398438 L 28.800781 57.601562 L 36 64.800781 L 43.199219 57.601562 Z M 36 50.398438 "/>
<path fill-rule="nonzero" fill="rgb(0%, 0%, 100%)" fill-opacity="1" stroke-width="2" stroke-linecap="butt" stroke-linejoin="miter" stroke="rgb(0%, 0%, 0%)" stroke-opacity="1" stroke-miterlimit="10" d="M 36 50.398438 L 43.199219 57.601562 L 36 64.800781 L 28.800781 57.601562 Z M 36 50.398438 "/>
<path fill-rule="nonzero" fill="rgb(0%, 0%, 100%)" fill-opacity="1" d="M 43.199219 57.601562 L 50.398438 64.800781 L 43.199219 72 L 36 64.800781 Z M 43.199219 57.601562 "/>
<path fill-rule="nonzero" fill="rgb(0%, 0%, 100%)" fill-opacity="1" stroke-width="2" stroke-linecap="butt" stroke-linejoin="miter" stroke="rgb(0%, 0%, 0%)" stroke-opacity="1" stroke-miterlimit="10" d="M 43.199219 57.601562 L 36 64.800781 L 43.199219 72 L 50.398438 64.800781 Z M 43.199219 57.601562 "/>
<path fill-rule="nonzero" fill="rgb(0%, 0%, 100%)" fill-opacity="1" d="M 50.398438 64.800781 L 43.199219 72 L 50.398438 79.199219 L 57.601562 72 Z M 50.398438 64.800781 "/>
<path fill-rule="nonzero" fill="rgb(0%, 0%, 100%)" fill-opacity="1" stroke-width="2" stroke-linecap="butt" stroke-linejoin="miter" stroke="rgb(0%, 0%, 0%)" stroke-opacity="1" stroke-miterlimit="10" d="M 50.398438 64.800781 L 57.601562 72 L 50.398438 79.199219 L 43.199219 72 Z M 50.398438 64.800781 "/>
<path fill-rule="nonzero" fill="rgb(0%, 0%, 100%)" fill-opacity="1" d="M 57.601562 72 L 64.800781 79.199219 L 57.601562 86.398438 L 50.398438 79.199219 Z M 57.601562 72 "/>
<path fill-rule="nonzero" fill="rgb(0%, 0%, 100%)" fill-opacity="1" stroke-width="2" stroke-linecap="butt" stroke-linejoin="miter" stroke="rgb(0%, 0%, 0%)" stroke-opacity="1" stroke-miterlimit="10" d="M 57.601562 72 L 50.398438 79.199219 L 57.601562 86.398438 L 64.800781 79.199219 Z M 57.601562 72 "/>
<path fill-rule="nonzero" fill="rgb(0%, 0%, 100%)" fill-opacity="1" d="M 64.800781 79.199219 L 57.601562 86.398438 L 64.800781 93.601562 L 72 86.398438 Z M 64.800781 79.199219 "/>
<path fill-rule="nonzero" fill="rgb(0%, 0%, 100%)" fill-opacity="1" stroke-width="2" stroke-linecap="butt" stroke-linejoin="miter" stroke="rgb(0%, 0%, 0%)" stroke-opacity="1" stroke-miterlimit="10" d="M 64.800781 79.199219 L 72 86.398438 L 64.800781 93.601562 L 57.601562 86.398438 Z M 64.800781 79.199219 "/>
<path fill-rule="nonzero" fill="rgb(0%, 0%, 100%)" fill-opacity="1" d="M 72 86.398438 L 79.199219 93.601562 L 72 100.800781 L 64.800781 93.601562 Z M 72 86.398438 "/>
<path fill-rule="nonzero" fill="rgb(0%, 0%, 100%)" fill-opacity="1" stroke-width="2" stroke-linecap="butt" stroke-linejoin="miter" stroke="rgb(0%, 0%, 0%)" stroke-opacity="1" stroke-miterlimit="10" d="M 72 86.398438 L 64.800781 93.601562 L 72 100.800781 L 79.199219 93.601562 Z M 72 86.398438 "/>
<path fill-rule="nonzero" fill="rgb(0%, 0%, 100%)" fill-opacity="1" d="M 79.199219 93.601562 L 72 100.800781 L 79.199219 108 L 86.398438 100.800781 Z M 79.199219 93.601562 "/>
<path fill-rule="nonzero" fill="rgb(0%, 0%, 100%)" fill-opacity="1" stroke-width="2" stroke-linecap="butt" stroke-linejoin="miter" stroke="rgb(0%, 0%, 0%)" stroke-opacity="1" stroke-miterlimit="10" d="M 79.199219 93.601562 L 86.398438 100.800781 L 79.199219 108 L 72 100.800781 Z M 79.199219 93.601562 "/>
<path fill-rule="nonzero" fill="rgb(0%, 0%, 100%)" fill-opacity="1" d="M 86.398438 100.800781 L 93.601562 108 L 86.398438 115.199219 L 79.199219 108 Z M 86.398438 100.800781 "/>
<path fill-rule="nonzero" fill="rgb(0%, 0%, 100%)" fill-opacity="1" stroke-width="2" stroke-linecap="butt" stroke-linejoin="miter" stroke="rgb(0%, 0%, 0%)" stroke-opacity="1" stroke-miterlimit="10" d="M 86.398438 100.800781 L 79.199219 108 L 86.398438 115.199219 L 93.601562 108 Z M 86.398438 100.800781 "/>
<path fill-rule="nonzero" fill="rgb(0%, 0%, 100%)" fill-opacity="1" d="M 93.601562 108 L 86.398438 115.199219 L 93.601562 122.398438 L 100.800781 115.199219 Z M 93.601562 108 "/>
<path fill-rule="nonzero" fill="rgb(0%, 0%, 100%)" fill-opacity="1" stroke-width="2" stroke-linecap="butt" stroke-linejoin="miter" stroke="rgb(0%, 0%, 0%)" stroke-opacity="1" stroke-miterlimit="10" d="M 93.601562 108 L 100.800781 115.199219 L 93.601562 122.398438 L 86.398438 115.199219 Z M 93.601562 108 "/>
<path fill-rule="nonzero" fill="rgb(0%, 0%, 100%)" fill-opacity="1" d="M 100.800781 115.199219 L 108 122.398438 L 100.800781 129.601562 L 93.601562 122.398438 Z M 100.800781 115.199219 "/>
<path fill-rule="nonzero" fill="rgb(0%, 0%, 100%)" fill-opacity="1" stroke-width="2" stroke-linecap="butt" stroke-linejoin="miter" stroke="rgb(0%, 0%, 0%)" stroke-opacity="1" stroke-miterlimit="10" d="M 100.800781 115.199219 L 93.601562 122.398438 L 100.800781 129.601562 L 108 122.398438 Z M 100.800781 115.199219 "/>
<path fill-rule="nonzero" fill="rgb(0%, 0%, 100%)" fill-opacity="1" d="M 108 122.398438 L 100.800781 129.601562 L 108 136.800781 L 115.199219 129.601562 Z M 108 122.398438 "/>
<path fill-rule="nonzero" fill="rgb(0%, 0%, 100%)" fill-opacity="1" stroke-width="2" stroke-linecap="butt" stroke-linejoin="miter" stroke="rgb(0%, 0%, 0%)" stroke-opacity="1" stroke-miterlimit="10" d="M 108 122.398438 L 115.199219 129.601562 L 108 136.800781 L 100.800781 129.601562 Z M 108 122.398438 "/>
<path fill-rule="nonzero" fill="rgb(0%, 0%, 100%)" fill-opacity="1" d="M 115.199219 129.601562 L 122.398438 136.800781 L 115.199219 144 L 108 136.800781 Z M 115.199219 129.601562 "/>
<path fill-rule="nonzero" fill="rgb(100%, 100%, 0%)" fill-opacity="1" stroke-width="2" stroke-linecap="butt" stroke-linejoin="miter" stroke="rgb(0%, 0%, 0%)" stroke-opacity="1" stroke-miterlimit="10" d="M 115.199219 129.601562 L 108 136.800781 L 115.199219 144 L 122.398438 136.800781 Z M 115.199219 129.601562 "/>
<path fill-rule="nonzero" fill="rgb(0%, 0%, 100%)" fill-opacity="1" d="M 21.601562 50.398438 L 14.398438 57.601562 L 21.601562 64.800781 L 28.800781 57.601562 Z M 21.601562 50.398438 "/>
<path fill-rule="nonzero" fill="rgb(0%, 0%, 100%)" fill-opacity="1" stroke-width="2" stroke-linecap="butt" stroke-linejoin="miter" stroke="rgb(0%, 0%, 0%)" stroke-opacity="1" stroke-miterlimit="10" d="M 21.601562 50.398438 L 28.800781 57.601562 L 21.601562 64.800781 L 14.398438 57.601562 Z M 21.601562 50.398438 "/>
<path fill-rule="nonzero" fill="rgb(0%, 0%, 100%)" fill-opacity="1" d="M 28.800781 57.601562 L 36 64.800781 L 28.800781 72 L 21.601562 64.800781 Z M 28.800781 57.601562 "/>
<path fill-rule="nonzero" fill="rgb(0%, 0%, 100%)" fill-opacity="1" stroke-width="2" stroke-linecap="butt" stroke-linejoin="miter" stroke="rgb(0%, 0%, 0%)" stroke-opacity="1" stroke-miterlimit="10" d="M 28.800781 57.601562 L 21.601562 64.800781 L 28.800781 72 L 36 64.800781 Z M 28.800781 57.601562 "/>
<path fill-rule="nonzero" fill="rgb(0%, 0%, 100%)" fill-opacity="1" d="M 36 64.800781 L 28.800781 72 L 36 79.199219 L 43.199219 72 Z M 36 64.800781 "/>
<path fill-rule="nonzero" fill="rgb(0%, 0%, 100%)" fill-opacity="1" stroke-width="2" stroke-linecap="butt" stroke-linejoin="miter" stroke="rgb(0%, 0%, 0%)" stroke-opacity="1" stroke-miterlimit="10" d="M 36 64.800781 L 43.199219 72 L 36 79.199219 L 28.800781 72 Z M 36 64.800781 "/>
<path fill-rule="nonzero" fill="rgb(0%, 0%, 100%)" fill-opacity="1" d="M 43.199219 72 L 50.398438 79.199219 L 43.199219 86.398438 L 36 79.199219 Z M 43.199219 72 "/>
<path fill-rule="nonzero" fill="rgb(0%, 0%, 100%)" fill-opacity="1" stroke-width="2" stroke-linecap="butt" stroke-linejoin="miter" stroke="rgb(0%, 0%, 0%)" stroke-opacity="1" stroke-miterlimit="10" d="M 43.199219 72 L 36 79.199219 L 43.199219 86.398438 L 50.398438 79.199219 Z M 43.199219 72 "/>
<path fill-rule="nonzero" fill="rgb(0%, 0%, 100%)" fill-opacity="1" d="M 50.398438 79.199219 L 43.199219 86.398438 L 50.398438 93.601562 L 57.601562 86.398438 Z M 50.398438 79.199219 "/>
<path fill-rule="nonzero" fill="rgb(0%, 0%, 100%)" fill-opacity="1" stroke-width="2" stroke-linecap="butt" stroke-linejoin="miter" stroke="rgb(0%, 0%, 0%)" stroke-opacity="1" stroke-miterlimit="10" d="M 50.398438 79.199219 L 57.601562 86.398438 L 50.398438 93.601562 L 43.199219 86.398438 Z M 50.398438 79.199219 "/>
<path fill-rule="nonzero" fill="rgb(0%, 0%, 100%)" fill-opacity="1" d="M 57.601562 86.398438 L 64.800781 93.601562 L 57.601562 100.800781 L 50.398438 93.601562 Z M 57.601562 86.398438 "/>
<path fill-rule="nonzero" fill="rgb(0%, 0%, 100%)" fill-opacity="1" stroke-width="2" stroke-linecap="butt" stroke-linejoin="miter" stroke="rgb(0%, 0%, 0%)" stroke-opacity="1" stroke-miterlimit="10" d="M 57.601562 86.398438 L 50.398438 93.601562 L 57.601562 100.800781 L 64.800781 93.601562 Z M 57.601562 86.398438 "/>
<path fill-rule="nonzero" fill="rgb(0%, 0%, 100%)" fill-opacity="1" d="M 64.800781 93.601562 L 57.601562 100.800781 L 64.800781 108 L 72 100.800781 Z M 64.800781 93.601562 "/>
<path fill-rule="nonzero" fill="rgb(0%, 0%, 100%)" fill-opacity="1" stroke-width="2" stroke-linecap="butt" stroke-linejoin="miter" stroke="rgb(0%, 0%, 0%)" stroke-opacity="1" stroke-miterlimit="10" d="M 64.800781 93.601562 L 72 100.800781 L 64.800781 108 L 57.601562 100.800781 Z M 64.800781 93.601562 "/>
<path fill-rule="nonzero" fill="rgb(0%, 0%, 100%)" fill-opacity="1" d="M 72 100.800781 L 79.199219 108 L 72 115.199219 L 64.800781 108 Z M 72 100.800781 "/>
<path fill-rule="nonzero" fill="rgb(0%, 0%, 100%)" fill-opacity="1" stroke-width="2" stroke-linecap="butt" stroke-linejoin="miter" stroke="rgb(0%, 0%, 0%)" stroke-opacity="1" stroke-miterlimit="10" d="M 72 100.800781 L 64.800781 108 L 72 115.199219 L 79.199219 108 Z M 72 100.800781 "/>
<path fill-rule="nonzero" fill="rgb(0%, 0%, 100%)" fill-opacity="1" d="M 79.199219 108 L 72 115.199219 L 79.199219 122.398438 L 86.398438 115.199219 Z M 79.199219 108 "/>
<path fill-rule="nonzero" fill="rgb(0%, 0%, 100%)" fill-opacity="1" stroke-width="2" stroke-linecap="butt" stroke-linejoin="miter" stroke="rgb(0%, 0%, 0%)" stroke-opacity="1" stroke-miterlimit="10" d="M 79.199219 108 L 86.398438 115.199219 L 79.199219 122.398438 L 72 115.199219 Z M 79.199219 108 "/>
<path fill-rule="nonzero" fill="rgb(0%, 0%, 100%)" fill-opacity="1" d="M 86.398438 115.199219 L 93.601562 122.398438 L 86.398438 129.601562 L 79.199219 122.398438 Z M 86.398438 115.199219 "/>
<path fill-rule="nonzero" fill="rgb(100%, 100%, 0%)" fill-opacity="1" stroke-width="2" stroke-linecap="butt" stroke-linejoin="miter" stroke="rgb(0%, 0%, 0%)" stroke-opacity="1" stroke-miterlimit="10" d="M 86.398438 115.199219 L 79.199219 122.398438 L 86.398438 129.601562 L 93.601562 122.398438 Z M 86.398438 115.199219 "/>
<path fill-rule="nonzero" fill="rgb(100%, 100%, 0%)" fill-opacity="1" d="M 93.601562 122.398438 L 86.398438 129.601562 L 93.601562 136.800781 L 100.800781 129.601562 Z M 93.601562 122.398438 "/>
<path fill-rule="nonzero" fill="rgb(0%, 0%, 100%)" fill-opacity="1" stroke-width="2" stroke-linecap="butt" stroke-linejoin="miter" stroke="rgb(0%, 0%, 0%)" stroke-opacity="1" stroke-miterlimit="10" d="M 93.601562 122.398438 L 100.800781 129.601562 L 93.601562 136.800781 L 86.398438 129.601562 Z M 93.601562 122.398438 "/>
<path fill-rule="nonzero" fill="rgb(0%, 0%, 100%)" fill-opacity="1" d="M 100.800781 129.601562 L 108 136.800781 L 100.800781 144 L 93.601562 136.800781 Z M 100.800781 129.601562 "/>
<path fill-rule="nonzero" fill="rgb(0%, 0%, 100%)" fill-opacity="1" stroke-width="2" stroke-linecap="butt" stroke-linejoin="miter" stroke="rgb(0%, 0%, 0%)" stroke-opacity="1" stroke-miterlimit="10" d="M 100.800781 129.601562 L 93.601562 136.800781 L 100.800781 144 L 108 136.800781 Z M 100.800781 129.601562 "/>
<path fill-rule="nonzero" fill="rgb(0%, 0%, 100%)" fill-opacity="1" d="M 21.601562 64.800781 L 14.398438 72 L 21.601562 79.199219 L 28.800781 72 Z M 21.601562 64.800781 "/>
<path fill-rule="nonzero" fill="rgb(0%, 0%, 100%)" fill-opacity="1" stroke-width="2" stroke-linecap="butt" stroke-linejoin="miter" stroke="rgb(0%, 0%, 0%)" stroke-opacity="1" stroke-miterlimit="10" d="M 21.601562 64.800781 L 28.800781 72 L 21.601562 79.199219 L 14.398438 72 Z M 21.601562 64.800781 "/>
<path fill-rule="nonzero" fill="rgb(0%, 0%, 100%)" fill-opacity="1" d="M 28.800781 72 L 36 79.199219 L 28.800781 86.398438 L 21.601562 79.199219 Z M 28.800781 72 "/>
<path fill-rule="nonzero" fill="rgb(0%, 0%, 100%)" fill-opacity="1" stroke-width="2" stroke-linecap="butt" stroke-linejoin="miter" stroke="rgb(0%, 0%, 0%)" stroke-opacity="1" stroke-miterlimit="10" d="M 28.800781 72 L 21.601562 79.199219 L 28.800781 86.398438 L 36 79.199219 Z M 28.800781 72 "/>
<path fill-rule="nonzero" fill="rgb(0%, 0%, 100%)" fill-opacity="1" d="M 36 79.199219 L 28.800781 86.398438 L 36 93.601562 L 43.199219 86.398438 Z M 36 79.199219 "/>
<path fill-rule="nonzero" fill="rgb(0%, 0%, 100%)" fill-opacity="1" stroke-width="2" stroke-linecap="butt" stroke-linejoin="miter" stroke="rgb(0%, 0%, 0%)" stroke-opacity="1" stroke-miterlimit="10" d="M 36 79.199219 L 43.199219 86.398438 L 36 93.601562 L 28.800781 86.398438 Z M 36 79.199219 "/>
<path fill-rule="nonzero" fill="rgb(0%, 0%, 100%)" fill-opacity="1" d="M 43.199219 86.398438 L 50.398438 93.601562 L 43.199219 100.800781 L 36 93.601562 Z M 43.199219 86.398438 "/>
<path fill-rule="nonzero" fill="rgb(0%, 0%, 100%)" fill-opacity="1" stroke-width="2" stroke-linecap="butt" stroke-linejoin="miter" stroke="rgb(0%, 0%, 0%)" stroke-opacity="1" stroke-miterlimit="10" d="M 43.199219 86.398438 L 36 93.601562 L 43.199219 100.800781 L 50.398438 93.601562 Z M 43.199219 86.398438 "/>
<path fill-rule="nonzero" fill="rgb(0%, 0%, 100%)" fill-opacity="1" d="M 50.398438 93.601562 L 43.199219 100.800781 L 50.398438 108 L 57.601562 100.800781 Z M 50.398438 93.601562 "/>
<path fill-rule="nonzero" fill="rgb(0%, 0%, 100%)" fill-opacity="1" stroke-width="2" stroke-linecap="butt" stroke-linejoin="miter" stroke="rgb(0%, 0%, 0%)" stroke-opacity="1" stroke-miterlimit="10" d="M 50.398438 93.601562 L 57.601562 100.800781 L 50.398438 108 L 43.199219 100.800781 Z M 50.398438 93.601562 "/>
<path fill-rule="nonzero" fill="rgb(0%, 0%, 100%)" fill-opacity="1" d="M 57.601562 100.800781 L 64.800781 108 L 57.601562 115.199219 L 50.398438 108 Z M 57.601562 100.800781 "/>
<path fill-rule="nonzero" fill="rgb(100%, 100%, 0%)" fill-opacity="1" stroke-width="2" stroke-linecap="butt" stroke-linejoin="miter" stroke="rgb(0%, 0%, 0%)" stroke-opacity="1" stroke-miterlimit="10" d="M 57.601562 100.800781 L 50.398438 108 L 57.601562 115.199219 L 64.800781 108 Z M 57.601562 100.800781 "/>
<path fill-rule="nonzero" fill="rgb(100%, 100%, 0%)" fill-opacity="1" d="M 64.800781 108 L 57.601562 115.199219 L 64.800781 122.398438 L 72 115.199219 Z M 64.800781 108 "/>
<path fill-rule="nonzero" fill="rgb(0%, 0%, 100%)" fill-opacity="1" stroke-width="2" stroke-linecap="butt" stroke-linejoin="miter" stroke="rgb(0%, 0%, 0%)" stroke-opacity="1" stroke-miterlimit="10" d="M 64.800781 108 L 72 115.199219 L 64.800781 122.398438 L 57.601562 115.199219 Z M 64.800781 108 "/>
<path fill-rule="nonzero" fill="rgb(0%, 0%, 100%)" fill-opacity="1" d="M 72 115.199219 L 79.199219 122.398438 L 72 129.601562 L 64.800781 122.398438 Z M 72 115.199219 "/>
<path fill-rule="nonzero" fill="rgb(0%, 0%, 100%)" fill-opacity="1" stroke-width="2" stroke-linecap="butt" stroke-linejoin="miter" stroke="rgb(0%, 0%, 0%)" stroke-opacity="1" stroke-miterlimit="10" d="M 72 115.199219 L 64.800781 122.398438 L 72 129.601562 L 79.199219 122.398438 Z M 72 115.199219 "/>
<path fill-rule="nonzero" fill="rgb(0%, 0%, 100%)" fill-opacity="1" d="M 79.199219 122.398438 L 72 129.601562 L 79.199219 136.800781 L 86.398438 129.601562 Z M 79.199219 122.398438 "/>
<path fill-rule="nonzero" fill="rgb(0%, 0%, 100%)" fill-opacity="1" stroke-width="2" stroke-linecap="butt" stroke-linejoin="miter" stroke="rgb(0%, 0%, 0%)" stroke-opacity="1" stroke-miterlimit="10" d="M 79.199219 122.398438 L 86.398438 129.601562 L 79.199219 136.800781 L 72 129.601562 Z M 79.199219 122.398438 "/>
<path fill-rule="nonzero" fill="rgb(0%, 0%, 100%)" fill-opacity="1" d="M 86.398438 129.601562 L 93.601562 136.800781 L 86.398438 144 L 79.199219 136.800781 Z M 86.398438 129.601562 "/>
<path fill-rule="nonzero" fill="rgb(0%, 0%, 100%)" fill-opacity="1" stroke-width="2" stroke-linecap="butt" stroke-linejoin="miter" stroke="rgb(0%, 0%, 0%)" stroke-opacity="1" stroke-miterlimit="10" d="M 86.398438 129.601562 L 79.199219 136.800781 L 86.398438 144 L 93.601562 136.800781 Z M 86.398438 129.601562 "/>
<path fill-rule="nonzero" fill="rgb(0%, 0%, 100%)" fill-opacity="1" d="M 21.601562 79.199219 L 14.398438 86.398438 L 21.601562 93.601562 L 28.800781 86.398438 Z M 21.601562 79.199219 "/>
<path fill-rule="nonzero" fill="rgb(0%, 0%, 100%)" fill-opacity="1" stroke-width="2" stroke-linecap="butt" stroke-linejoin="miter" stroke="rgb(0%, 0%, 0%)" stroke-opacity="1" stroke-miterlimit="10" d="M 21.601562 79.199219 L 28.800781 86.398438 L 21.601562 93.601562 L 14.398438 86.398438 Z M 21.601562 79.199219 "/>
<path fill-rule="nonzero" fill="rgb(0%, 0%, 100%)" fill-opacity="1" d="M 28.800781 86.398438 L 36 93.601562 L 28.800781 100.800781 L 21.601562 93.601562 Z M 28.800781 86.398438 "/>
<path fill-rule="nonzero" fill="rgb(100%, 100%, 0%)" fill-opacity="1" stroke-width="2" stroke-linecap="butt" stroke-linejoin="miter" stroke="rgb(0%, 0%, 0%)" stroke-opacity="1" stroke-miterlimit="10" d="M 28.800781 86.398438 L 21.601562 93.601562 L 28.800781 100.800781 L 36 93.601562 Z M 28.800781 86.398438 "/>
<path fill-rule="nonzero" fill="rgb(100%, 100%, 0%)" fill-opacity="1" d="M 36 93.601562 L 28.800781 100.800781 L 36 108 L 43.199219 100.800781 Z M 36 93.601562 "/>
<path fill-rule="nonzero" fill="rgb(0%, 0%, 100%)" fill-opacity="1" stroke-width="2" stroke-linecap="butt" stroke-linejoin="miter" stroke="rgb(0%, 0%, 0%)" stroke-opacity="1" stroke-miterlimit="10" d="M 36 93.601562 L 43.199219 100.800781 L 36 108 L 28.800781 100.800781 Z M 36 93.601562 "/>
<path fill-rule="nonzero" fill="rgb(0%, 0%, 100%)" fill-opacity="1" d="M 43.199219 100.800781 L 50.398438 108 L 43.199219 115.199219 L 36 108 Z M 43.199219 100.800781 "/>
<path fill-rule="nonzero" fill="rgb(0%, 0%, 100%)" fill-opacity="1" stroke-width="2" stroke-linecap="butt" stroke-linejoin="miter" stroke="rgb(0%, 0%, 0%)" stroke-opacity="1" stroke-miterlimit="10" d="M 43.199219 100.800781 L 36 108 L 43.199219 115.199219 L 50.398438 108 Z M 43.199219 100.800781 "/>
<path fill-rule="nonzero" fill="rgb(0%, 0%, 100%)" fill-opacity="1" d="M 50.398438 108 L 43.199219 115.199219 L 50.398438 122.398438 L 57.601562 115.199219 Z M 50.398438 108 "/>
<path fill-rule="nonzero" fill="rgb(0%, 0%, 100%)" fill-opacity="1" stroke-width="2" stroke-linecap="butt" stroke-linejoin="miter" stroke="rgb(0%, 0%, 0%)" stroke-opacity="1" stroke-miterlimit="10" d="M 50.398438 108 L 57.601562 115.199219 L 50.398438 122.398438 L 43.199219 115.199219 Z M 50.398438 108 "/>
<path fill-rule="nonzero" fill="rgb(0%, 0%, 100%)" fill-opacity="1" d="M 57.601562 115.199219 L 64.800781 122.398438 L 57.601562 129.601562 L 50.398438 122.398438 Z M 57.601562 115.199219 "/>
<path fill-rule="nonzero" fill="rgb(0%, 0%, 100%)" fill-opacity="1" stroke-width="2" stroke-linecap="butt" stroke-linejoin="miter" stroke="rgb(0%, 0%, 0%)" stroke-opacity="1" stroke-miterlimit="10" d="M 57.601562 115.199219 L 50.398438 122.398438 L 57.601562 129.601562 L 64.800781 122.398438 Z M 57.601562 115.199219 "/>
<path fill-rule="nonzero" fill="rgb(0%, 0%, 100%)" fill-opacity="1" d="M 64.800781 122.398438 L 57.601562 129.601562 L 64.800781 136.800781 L 72 129.601562 Z M 64.800781 122.398438 "/>
<path fill-rule="nonzero" fill="rgb(0%, 0%, 100%)" fill-opacity="1" stroke-width="2" stroke-linecap="butt" stroke-linejoin="miter" stroke="rgb(0%, 0%, 0%)" stroke-opacity="1" stroke-miterlimit="10" d="M 64.800781 122.398438 L 72 129.601562 L 64.800781 136.800781 L 57.601562 129.601562 Z M 64.800781 122.398438 "/>
<path fill-rule="nonzero" fill="rgb(0%, 0%, 100%)" fill-opacity="1" d="M 72 129.601562 L 79.199219 136.800781 L 72 144 L 64.800781 136.800781 Z M 72 129.601562 "/>
<path fill-rule="nonzero" fill="rgb(0%, 0%, 100%)" fill-opacity="1" stroke-width="2" stroke-linecap="butt" stroke-linejoin="miter" stroke="rgb(0%, 0%, 0%)" stroke-opacity="1" stroke-miterlimit="10" d="M 72 129.601562 L 64.800781 136.800781 L 72 144 L 79.199219 136.800781 Z M 72 129.601562 "/>
<path fill-rule="nonzero" fill="rgb(0%, 0%, 100%)" fill-opacity="1" d="M 21.601562 93.601562 L 14.398438 100.800781 L 21.601562 108 L 28.800781 100.800781 Z M 21.601562 93.601562 "/>
<path fill-rule="nonzero" fill="rgb(0%, 0%, 100%)" fill-opacity="1" stroke-width="2" stroke-linecap="butt" stroke-linejoin="miter" stroke="rgb(0%, 0%, 0%)" stroke-opacity="1" stroke-miterlimit="10" d="M 21.601562 93.601562 L 28.800781 100.800781 L 21.601562 108 L 14.398438 100.800781 Z M 21.601562 93.601562 "/>
<path fill-rule="nonzero" fill="rgb(0%, 0%, 100%)" fill-opacity="1" d="M 28.800781 100.800781 L 36 108 L 28.800781 115.199219 L 21.601562 108 Z M 28.800781 100.800781 "/>
<path fill-rule="nonzero" fill="rgb(0%, 0%, 100%)" fill-opacity="1" stroke-width="2" stroke-linecap="butt" stroke-linejoin="miter" stroke="rgb(0%, 0%, 0%)" stroke-opacity="1" stroke-miterlimit="10" d="M 28.800781 100.800781 L 21.601562 108 L 28.800781 115.199219 L 36 108 Z M 28.800781 100.800781 "/>
<path fill-rule="nonzero" fill="rgb(0%, 0%, 100%)" fill-opacity="1" d="M 36 108 L 28.800781 115.199219 L 36 122.398438 L 43.199219 115.199219 Z M 36 108 "/>
<path fill-rule="nonzero" fill="rgb(0%, 0%, 100%)" fill-opacity="1" stroke-width="2" stroke-linecap="butt" stroke-linejoin="miter" stroke="rgb(0%, 0%, 0%)" stroke-opacity="1" stroke-miterlimit="10" d="M 36 108 L 43.199219 115.199219 L 36 122.398438 L 28.800781 115.199219 Z M 36 108 "/>
<path fill-rule="nonzero" fill="rgb(0%, 0%, 100%)" fill-opacity="1" d="M 43.199219 115.199219 L 50.398438 122.398438 L 43.199219 129.601562 L 36 122.398438 Z M 43.199219 115.199219 "/>
<path fill-rule="nonzero" fill="rgb(0%, 0%, 100%)" fill-opacity="1" stroke-width="2" stroke-linecap="butt" stroke-linejoin="miter" stroke="rgb(0%, 0%, 0%)" stroke-opacity="1" stroke-miterlimit="10" d="M 43.199219 115.199219 L 36 122.398438 L 43.199219 129.601562 L 50.398438 122.398438 Z M 43.199219 115.199219 "/>
<path fill-rule="nonzero" fill="rgb(0%, 0%, 100%)" fill-opacity="1" d="M 50.398438 122.398438 L 43.199219 129.601562 L 50.398438 136.800781 L 57.601562 129.601562 Z M 50.398438 122.398438 "/>
<path fill-rule="nonzero" fill="rgb(0%, 0%, 100%)" fill-opacity="1" stroke-width="2" stroke-linecap="butt" stroke-linejoin="miter" stroke="rgb(0%, 0%, 0%)" stroke-opacity="1" stroke-miterlimit="10" d="M 50.398438 122.398438 L 57.601562 129.601562 L 50.398438 136.800781 L 43.199219 129.601562 Z M 50.398438 122.398438 "/>
<path fill-rule="nonzero" fill="rgb(0%, 0%, 100%)" fill-opacity="1" d="M 57.601562 129.601562 L 64.800781 136.800781 L 57.601562 144 L 50.398438 136.800781 Z M 57.601562 129.601562 "/>
<path fill-rule="nonzero" fill="rgb(0%, 0%, 100%)" fill-opacity="1" stroke-width="2" stroke-linecap="butt" stroke-linejoin="miter" stroke="rgb(0%, 0%, 0%)" stroke-opacity="1" stroke-miterlimit="10" d="M 57.601562 129.601562 L 50.398438 136.800781 L 57.601562 144 L 64.800781 136.800781 Z M 57.601562 129.601562 "/>
<path fill-rule="nonzero" fill="rgb(0%, 0%, 100%)" fill-opacity="1" d="M 21.601562 108 L 14.398438 115.199219 L 21.601562 122.398438 L 28.800781 115.199219 Z M 21.601562 108 "/>
<path fill-rule="nonzero" fill="rgb(0%, 0%, 100%)" fill-opacity="1" stroke-width="2" stroke-linecap="butt" stroke-linejoin="miter" stroke="rgb(0%, 0%, 0%)" stroke-opacity="1" stroke-miterlimit="10" d="M 21.601562 108 L 28.800781 115.199219 L 21.601562 122.398438 L 14.398438 115.199219 Z M 21.601562 108 "/>
<path fill-rule="nonzero" fill="rgb(0%, 0%, 100%)" fill-opacity="1" d="M 28.800781 115.199219 L 36 122.398438 L 28.800781 129.601562 L 21.601562 122.398438 Z M 28.800781 115.199219 "/>
<path fill-rule="nonzero" fill="rgb(0%, 0%, 100%)" fill-opacity="1" stroke-width="2" stroke-linecap="butt" stroke-linejoin="miter" stroke="rgb(0%, 0%, 0%)" stroke-opacity="1" stroke-miterlimit="10" d="M 28.800781 115.199219 L 21.601562 122.398438 L 28.800781 129.601562 L 36 122.398438 Z M 28.800781 115.199219 "/>
<path fill-rule="nonzero" fill="rgb(0%, 0%, 100%)" fill-opacity="1" d="M 36 122.398438 L 28.800781 129.601562 L 36 136.800781 L 43.199219 129.601562 Z M 36 122.398438 "/>
<path fill-rule="nonzero" fill="rgb(0%, 0%, 100%)" fill-opacity="1" stroke-width="2" stroke-linecap="butt" stroke-linejoin="miter" stroke="rgb(0%, 0%, 0%)" stroke-opacity="1" stroke-miterlimit="10" d="M 36 122.398438 L 43.199219 129.601562 L 36 136.800781 L 28.800781 129.601562 Z M 36 122.398438 "/>
<path fill-rule="nonzero" fill="rgb(0%, 0%, 100%)" fill-opacity="1" d="M 43.199219 129.601562 L 50.398438 136.800781 L 43.199219 144 L 36 136.800781 Z M 43.199219 129.601562 "/>
<path fill-rule="nonzero" fill="rgb(0%, 0%, 100%)" fill-opacity="1" stroke-width="2" stroke-linecap="butt" stroke-linejoin="miter" stroke="rgb(0%, 0%, 0%)" stroke-opacity="1" stroke-miterlimit="10" d="M 43.199219 129.601562 L 36 136.800781 L 43.199219 144 L 50.398438 136.800781 Z M 43.199219 129.601562 "/>
<path fill-rule="nonzero" fill="rgb(0%, 0%, 100%)" fill-opacity="1" d="M 21.601562 122.398438 L 14.398438 129.601562 L 21.601562 136.800781 L 28.800781 129.601562 Z M 21.601562 122.398438 "/>
<path fill-rule="nonzero" fill="rgb(0%, 0%, 100%)" fill-opacity="1" stroke-width="2" stroke-linecap="butt" stroke-linejoin="miter" stroke="rgb(0%, 0%, 0%)" stroke-opacity="1" stroke-miterlimit="10" d="M 21.601562 122.398438 L 28.800781 129.601562 L 21.601562 136.800781 L 14.398438 129.601562 Z M 21.601562 122.398438 "/>
<path fill-rule="nonzero" fill="rgb(0%, 0%, 100%)" fill-opacity="1" d="M 28.800781 129.601562 L 36 136.800781 L 28.800781 144 L 21.601562 136.800781 Z M 28.800781 129.601562 "/>
<path fill-rule="nonzero" fill="rgb(0%, 0%, 100%)" fill-opacity="1" stroke-width="2" stroke-linecap="butt" stroke-linejoin="miter" stroke="rgb(0%, 0%, 0%)" stroke-opacity="1" stroke-miterlimit="10" d="M 28.800781 129.601562 L 21.601562 136.800781 L 28.800781 144 L 36 136.800781 Z M 28.800781 129.601562 "/>
</svg>
